<svg width="32" height="33" viewBox="0 0 32 33" fill="none" xmlns="http://www.w3.org/2000/svg">
<g id="Bank">
<path id="Vector" opacity="0.2" d="M29 12.5H3L16 4.5L29 12.5Z" fill="#773EFA"/>
<path id="Vector_2" d="M3 13.5004H6V21.5004H4C3.73478 21.5004 3.48043 21.6057 3.29289 21.7932C3.10536 21.9808 3 22.2351 3 22.5004C3 22.7656 3.10536 23.0199 3.29289 23.2075C3.48043 23.395 3.73478 23.5004 4 23.5004H28C28.2652 23.5004 28.5196 23.395 28.7071 23.2075C28.8946 23.0199 29 22.7656 29 22.5004C29 22.2351 28.8946 21.9808 28.7071 21.7932C28.5196 21.6057 28.2652 21.5004 28 21.5004H26V13.5004H29C29.2176 13.5001 29.4292 13.429 29.6026 13.2976C29.7761 13.1663 29.902 12.9819 29.9612 12.7726C30.0205 12.5632 30.0098 12.3403 29.9308 12.1375C29.8519 11.9348 29.709 11.7633 29.5238 11.6491L16.5238 3.6491C16.3662 3.55225 16.1849 3.50098 16 3.50098C15.8151 3.50098 15.6338 3.55225 15.4762 3.6491L2.47625 11.6491C2.29103 11.7633 2.14811 11.9348 2.06916 12.1375C1.99021 12.3403 1.97955 12.5632 2.03878 12.7726C2.09801 12.9819 2.22391 13.1663 2.39738 13.2976C2.57085 13.429 2.78242 13.5001 3 13.5004ZM8 13.5004H12V21.5004H8V13.5004ZM18 13.5004V21.5004H14V13.5004H18ZM24 21.5004H20V13.5004H24V21.5004ZM16 5.6741L25.4675 11.5004H6.5325L16 5.6741ZM31 26.5004C31 26.7656 30.8946 27.0199 30.7071 27.2075C30.5196 27.395 30.2652 27.5004 30 27.5004H2C1.73478 27.5004 1.48043 27.395 1.29289 27.2075C1.10536 27.0199 1 26.7656 1 26.5004C1 26.2351 1.10536 25.9808 1.29289 25.7932C1.48043 25.6057 1.73478 25.5004 2 25.5004H30C30.2652 25.5004 30.5196 25.6057 30.7071 25.7932C30.8946 25.9808 31 26.2351 31 26.5004Z" fill="#773EFA"/>
</g>
</svg>
