<svg width="32" height="33" viewBox="0 0 32 33" fill="none" xmlns="http://www.w3.org/2000/svg">
<g id="CreditCard">
<path id="Vector" opacity="0.2" d="M29 12.5V24.5C29 24.7652 28.8946 25.0196 28.7071 25.2071C28.5196 25.3946 28.2652 25.5 28 25.5H4C3.73478 25.5 3.48043 25.3946 3.29289 25.2071C3.10536 25.0196 3 24.7652 3 24.5V12.5H29Z" fill="#773EFA"/>
<path id="Vector_2" d="M28 6.5H4C3.46957 6.5 2.96086 6.71071 2.58579 7.08579C2.21071 7.46086 2 7.96957 2 8.5V24.5C2 25.0304 2.21071 25.5391 2.58579 25.9142C2.96086 26.2893 3.46957 26.5 4 26.5H28C28.5304 26.5 29.0391 26.2893 29.4142 25.9142C29.7893 25.5391 30 25.0304 30 24.5V8.5C30 7.96957 29.7893 7.46086 29.4142 7.08579C29.0391 6.71071 28.5304 6.5 28 6.5ZM28 8.5V11.5H4V8.5H28ZM28 24.5H4V13.5H28V24.5ZM26 21.5C26 21.7652 25.8946 22.0196 25.7071 22.2071C25.5196 22.3946 25.2652 22.5 25 22.5H21C20.7348 22.5 20.4804 22.3946 20.2929 22.2071C20.1054 22.0196 20 21.7652 20 21.5C20 21.2348 20.1054 20.9804 20.2929 20.7929C20.4804 20.6054 20.7348 20.5 21 20.5H25C25.2652 20.5 25.5196 20.6054 25.7071 20.7929C25.8946 20.9804 26 21.2348 26 21.5ZM18 21.5C18 21.7652 17.8946 22.0196 17.7071 22.2071C17.5196 22.3946 17.2652 22.5 17 22.5H15C14.7348 22.5 14.4804 22.3946 14.2929 22.2071C14.1054 22.0196 14 21.7652 14 21.5C14 21.2348 14.1054 20.9804 14.2929 20.7929C14.4804 20.6054 14.7348 20.5 15 20.5H17C17.2652 20.5 17.5196 20.6054 17.7071 20.7929C17.8946 20.9804 18 21.2348 18 21.5Z" fill="#773EFA"/>
</g>
</svg>
