<svg width="33" height="32" viewBox="0 0 33 32" fill="none" xmlns="http://www.w3.org/2000/svg">
<path d="M26.3335 5H6.3335C5.80306 5 5.29436 5.21071 4.91928 5.58579C4.54421 5.96086 4.3335 6.46957 4.3335 7V14C4.3335 20.59 7.5235 24.5837 10.1997 26.7738C13.0822 29.1313 15.9497 29.9312 16.0747 29.965C16.2466 30.0118 16.4279 30.0118 16.5997 29.965C16.7247 29.9312 19.5885 29.1313 22.4747 26.7738C25.1435 24.5837 28.3335 20.59 28.3335 14V7C28.3335 6.46957 28.1228 5.96086 27.7477 5.58579C27.3726 5.21071 26.8639 5 26.3335 5ZM22.0435 13.7075L15.0435 20.7075C14.9506 20.8005 14.8403 20.8742 14.7189 20.9246C14.5975 20.9749 14.4674 21.0008 14.336 21.0008C14.2046 21.0008 14.0745 20.9749 13.9531 20.9246C13.8317 20.8742 13.7214 20.8005 13.6285 20.7075L10.6285 17.7075C10.4409 17.5199 10.3354 17.2654 10.3354 17C10.3354 16.7346 10.4409 16.4801 10.6285 16.2925C10.8161 16.1049 11.0706 15.9994 11.336 15.9994C11.6014 15.9994 11.8559 16.1049 12.0435 16.2925L14.3335 18.5863L20.626 12.2925C20.7189 12.1996 20.8292 12.1259 20.9506 12.0756C21.072 12.0253 21.2021 11.9994 21.3335 11.9994C21.4649 11.9994 21.595 12.0253 21.7164 12.0756C21.8378 12.1259 21.9481 12.1996 22.041 12.2925C22.1339 12.3854 22.2076 12.4957 22.2579 12.6171C22.3082 12.7385 22.3341 12.8686 22.3341 13C22.3341 13.1314 22.3082 13.2615 22.2579 13.3829C22.2076 13.5043 22.1339 13.6146 22.041 13.7075H22.0435Z" fill="#773EFA"/>
</svg>
