<svg width="33" height="32" viewBox="0 0 33 32" fill="none" xmlns="http://www.w3.org/2000/svg">
<rect x="0.333374" width="32" height="32" rx="16" fill="#773EFA"/>
<path d="M26.0834 17.4996C26.0816 19.0904 25.4489 20.6155 24.3241 21.7403C23.1992 22.8652 21.6741 23.4979 20.0834 23.4996H11.8334C11.6344 23.4996 11.4437 23.4206 11.303 23.2799C11.1624 23.1393 11.0834 22.9485 11.0834 22.7496C11.0834 22.5507 11.1624 22.3599 11.303 22.2193C11.4437 22.0786 11.6344 21.9996 11.8334 21.9996H20.0834C21.2768 21.9996 22.4214 21.5255 23.2653 20.6816C24.1092 19.8377 24.5834 18.6931 24.5834 17.4996C24.5834 16.3061 24.1092 15.1615 23.2653 14.3176C22.4214 13.4737 21.2768 12.9996 20.0834 12.9996H12.5834V16.7496C12.5835 16.898 12.5395 17.0432 12.4571 17.1666C12.3747 17.29 12.2576 17.3863 12.1204 17.4431C11.9833 17.4999 11.8324 17.5147 11.6869 17.4858C11.5413 17.4568 11.4076 17.3852 11.3027 17.2802L6.80273 12.7802C6.733 12.7106 6.67768 12.6279 6.63993 12.5368C6.60219 12.4458 6.58276 12.3482 6.58276 12.2496C6.58276 12.1511 6.60219 12.0535 6.63993 11.9624C6.67768 11.8714 6.733 11.7886 6.80273 11.719L11.3027 7.21899C11.4076 7.11398 11.5413 7.04245 11.6869 7.01347C11.8324 6.98448 11.9833 6.99933 12.1204 7.05615C12.2576 7.11296 12.3747 7.20918 12.4571 7.33263C12.5395 7.45607 12.5835 7.60119 12.5834 7.74961V11.4996H20.0834C21.6741 11.5014 23.1992 12.1341 24.3241 13.2589C25.4489 14.3837 26.0816 15.9088 26.0834 17.4996Z" fill="white"/>
</svg>
