<svg width="33" height="32" viewBox="0 0 33 32" fill="none" xmlns="http://www.w3.org/2000/svg">
<g id="ShieldCheck">
<path id="Vector" d="M26.3333 5H6.33325C5.80282 5 5.29411 5.21071 4.91904 5.58579C4.54397 5.96086 4.33325 6.46957 4.33325 7V14C4.33325 20.59 7.52325 24.5837 10.1995 26.7738C13.082 29.1313 15.9495 29.9312 16.0745 29.965C16.2464 30.0118 16.4276 30.0118 16.5995 29.965C16.7245 29.9312 19.5883 29.1313 22.4745 26.7738C25.1433 24.5837 28.3333 20.59 28.3333 14V7C28.3333 6.46957 28.1225 5.96086 27.7475 5.58579C27.3724 5.21071 26.8637 5 26.3333 5ZM22.0433 13.7075L15.0433 20.7075C14.9504 20.8005 14.8401 20.8742 14.7187 20.9246C14.5973 20.9749 14.4672 21.0008 14.3358 21.0008C14.2043 21.0008 14.0742 20.9749 13.9528 20.9246C13.8314 20.8742 13.7211 20.8005 13.6283 20.7075L10.6283 17.7075C10.4406 17.5199 10.3352 17.2654 10.3352 17C10.3352 16.7346 10.4406 16.4801 10.6283 16.2925C10.8159 16.1049 11.0704 15.9994 11.3358 15.9994C11.6011 15.9994 11.8556 16.1049 12.0433 16.2925L14.3333 18.5863L20.6258 12.2925C20.7187 12.1996 20.829 12.1259 20.9504 12.0756C21.0717 12.0253 21.2019 11.9994 21.3333 11.9994C21.4646 11.9994 21.5948 12.0253 21.7161 12.0756C21.8375 12.1259 21.9478 12.1996 22.0408 12.2925C22.1337 12.3854 22.2074 12.4957 22.2576 12.6171C22.3079 12.7385 22.3338 12.8686 22.3338 13C22.3338 13.1314 22.3079 13.2615 22.2576 13.3829C22.2074 13.5043 22.1337 13.6146 22.0408 13.7075H22.0433Z" fill="#098EF7"/>
</g>
</svg>
