<svg width="33" height="32" viewBox="0 0 33 32" fill="none" xmlns="http://www.w3.org/2000/svg">
<rect x="0.333374" width="32" height="32" rx="16" fill="#098EF7"/>
<path d="M26.0834 17.5C26.0816 19.0907 25.4489 20.6159 24.3241 21.7407C23.1992 22.8655 21.6741 23.4982 20.0834 23.5H11.8334C11.6344 23.5 11.4437 23.421 11.303 23.2803C11.1624 23.1397 11.0834 22.9489 11.0834 22.75C11.0834 22.5511 11.1624 22.3603 11.303 22.2197C11.4437 22.079 11.6344 22 11.8334 22H20.0834C21.2768 22 22.4214 21.5259 23.2653 20.682C24.1092 19.838 24.5834 18.6935 24.5834 17.5C24.5834 16.3065 24.1092 15.1619 23.2653 14.318C22.4214 13.4741 21.2768 13 20.0834 13H12.5834V16.75C12.5835 16.8984 12.5395 17.0435 12.4571 17.167C12.3747 17.2904 12.2576 17.3866 12.1204 17.4434C11.9833 17.5003 11.8324 17.5151 11.6869 17.4861C11.5413 17.4571 11.4076 17.3856 11.3027 17.2806L6.80273 12.7806C6.733 12.711 6.67768 12.6282 6.63993 12.5372C6.60219 12.4461 6.58276 12.3485 6.58276 12.25C6.58276 12.1514 6.60219 12.0538 6.63993 11.9628C6.67768 11.8717 6.733 11.789 6.80273 11.7194L11.3027 7.21936C11.4076 7.11435 11.5413 7.04282 11.6869 7.01383C11.8324 6.98485 11.9833 6.9997 12.1204 7.05651C12.2576 7.11333 12.3747 7.20955 12.4571 7.33299C12.5395 7.45644 12.5835 7.60156 12.5834 7.74998V11.5H20.0834C21.6741 11.5017 23.1992 12.1344 24.3241 13.2593C25.4489 14.3841 26.0816 15.9092 26.0834 17.5Z" fill="white"/>
</svg>
