<svg width="33" height="32" viewBox="0 0 33 32" fill="none" xmlns="http://www.w3.org/2000/svg">
<g id="TruckTrailer" clip-path="url(#clip0_329_5551)">
<path id="Vector" d="M28.6665 12.1V12C28.6645 10.1441 27.9264 8.36477 26.6141 7.05245C25.3017 5.74012 23.5224 5.00199 21.6665 5H20.6665C20.1361 5 19.6274 5.21071 19.2523 5.58579C18.8772 5.96086 18.6665 6.46957 18.6665 7V22H16.6665V9C16.6665 8.73478 16.5611 8.48043 16.3736 8.29289C16.1861 8.10536 15.9317 8 15.6665 8H2.6665C2.13607 8 1.62736 8.21071 1.25229 8.58579C0.877218 8.96086 0.666504 9.46957 0.666504 10L0.666504 23C0.667417 23.8121 0.915498 24.6047 1.37776 25.2724C1.84003 25.9401 2.49458 26.4513 3.25439 26.738C4.01421 27.0246 4.84329 27.0733 5.63141 26.8774C6.41953 26.6815 7.12935 26.2503 7.6665 25.6412C8.14664 26.1867 8.7663 26.591 9.45892 26.8109C10.1515 27.0307 10.891 27.0577 11.5978 26.889C12.3046 26.7202 12.9521 26.3621 13.4707 25.8531C13.9893 25.3442 14.3595 24.7035 14.5415 24H24.7915C25.0333 24.9445 25.6118 25.7681 26.4181 26.3162C27.2245 26.8642 28.2032 27.0988 29.1704 26.976C30.1376 26.8532 31.0266 26.3814 31.6704 25.6492C32.3142 24.917 32.6684 23.9749 32.6665 23V17C32.6651 15.8478 32.2665 14.7313 31.5378 13.8387C30.8092 12.9461 29.7951 12.3321 28.6665 12.1ZM4.6665 25C4.27094 25 3.88426 24.8827 3.55536 24.6629C3.22647 24.4432 2.97012 24.1308 2.81874 23.7654C2.66737 23.3999 2.62776 22.9978 2.70493 22.6098C2.7821 22.2219 2.97259 21.8655 3.25229 21.5858C3.532 21.3061 3.88836 21.1156 4.27632 21.0384C4.66429 20.9613 5.06642 21.0009 5.43187 21.1522C5.79732 21.3036 6.10968 21.56 6.32944 21.8889C6.54921 22.2178 6.6665 22.6044 6.6665 23C6.6665 23.5304 6.45579 24.0391 6.08072 24.4142C5.70564 24.7893 5.19694 25 4.6665 25ZM10.6665 25C10.2709 25 9.88426 24.8827 9.55536 24.6629C9.22647 24.4432 8.97012 24.1308 8.81874 23.7654C8.66737 23.3999 8.62776 22.9978 8.70493 22.6098C8.7821 22.2219 8.97259 21.8655 9.25229 21.5858C9.532 21.3061 9.88836 21.1156 10.2763 21.0384C10.6643 20.9613 11.0664 21.0009 11.4319 21.1522C11.7973 21.3036 12.1097 21.56 12.3294 21.8889C12.5492 22.2178 12.6665 22.6044 12.6665 23C12.6665 23.5304 12.4558 24.0391 12.0807 24.4142C11.7056 24.7893 11.1969 25 10.6665 25ZM28.6665 25C28.2709 25 27.8843 24.8827 27.5554 24.6629C27.2265 24.4432 26.9701 24.1308 26.8187 23.7654C26.6674 23.3999 26.6278 22.9978 26.7049 22.6098C26.7821 22.2219 26.9726 21.8655 27.2523 21.5858C27.532 21.3061 27.8884 21.1156 28.2763 21.0384C28.6643 20.9613 29.0664 21.0009 29.4319 21.1522C29.7973 21.3036 30.1097 21.56 30.3294 21.8889C30.5492 22.2178 30.6665 22.6044 30.6665 23C30.6665 23.5304 30.4558 24.0391 30.0807 24.4142C29.7056 24.7893 29.1969 25 28.6665 25Z" fill="#098EF7"/>
</g>
<defs>
<clipPath id="clip0_329_5551">
<rect width="32" height="32" fill="white" transform="translate(0.666504)"/>
</clipPath>
</defs>
</svg>
