<svg width="32" height="33" viewBox="0 0 32 33" fill="none" xmlns="http://www.w3.org/2000/svg">
<g id="Package">
<path id="Vector" opacity="0.2" d="M16 16.6362V29.5C15.832 29.4993 15.667 29.4563 15.52 29.375L4.52 23.3525C4.36293 23.2665 4.23181 23.14 4.14035 22.9861C4.04888 22.8322 4.00041 22.6565 4 22.4775V10.5225C4.0004 10.3824 4.03021 10.244 4.0875 10.1162L16 16.6362Z" fill="#773EFA"/>
<path id="Vector_2" d="M27.96 8.76828L16.96 2.74953C16.6661 2.58714 16.3358 2.50195 16 2.50195C15.6642 2.50195 15.3339 2.58714 15.04 2.74953L4.04 8.77078C3.72586 8.94267 3.46363 9.19573 3.28069 9.50357C3.09775 9.8114 3.00081 10.1627 3 10.5208V22.4758C3.00081 22.8339 3.09775 23.1852 3.28069 23.493C3.46363 23.8008 3.72586 24.0539 4.04 24.2258L15.04 30.247C15.3339 30.4094 15.6642 30.4946 16 30.4946C16.3358 30.4946 16.6661 30.4094 16.96 30.247L27.96 24.2258C28.2741 24.0539 28.5364 23.8008 28.7193 23.493C28.9023 23.1852 28.9992 22.8339 29 22.4758V10.522C28.9999 10.1633 28.9032 9.81123 28.7203 9.50268C28.5373 9.19413 28.2747 8.94047 27.96 8.76828ZM16 4.49953L26.0425 9.99953L22.3213 12.037L12.2775 6.53703L16 4.49953ZM16 15.4995L5.9575 9.99953L10.195 7.67953L20.2375 13.1795L16 15.4995ZM5 11.7495L15 17.222V27.9458L5 22.477V11.7495ZM27 22.472L17 27.9458V17.227L21 15.0383V19.4995C21 19.7648 21.1054 20.0191 21.2929 20.2066C21.4804 20.3942 21.7348 20.4995 22 20.4995C22.2652 20.4995 22.5196 20.3942 22.7071 20.2066C22.8946 20.0191 23 19.7648 23 19.4995V13.9433L27 11.7495V22.4708V22.472Z" fill="#773EFA"/>
</g>
</svg>
