<svg width="32" height="33" viewBox="0 0 32 33" fill="none" xmlns="http://www.w3.org/2000/svg">
<g id="QrCode">
<path id="Vector" opacity="0.2" d="M14 7.5V13.5C14 13.7652 13.8946 14.0196 13.7071 14.2071C13.5196 14.3946 13.2652 14.5 13 14.5H7C6.73478 14.5 6.48043 14.3946 6.29289 14.2071C6.10536 14.0196 6 13.7652 6 13.5V7.5C6 7.23478 6.10536 6.98043 6.29289 6.79289C6.48043 6.60536 6.73478 6.5 7 6.5H13C13.2652 6.5 13.5196 6.60536 13.7071 6.79289C13.8946 6.98043 14 7.23478 14 7.5ZM13 18.5H7C6.73478 18.5 6.48043 18.6054 6.29289 18.7929C6.10536 18.9804 6 19.2348 6 19.5V25.5C6 25.7652 6.10536 26.0196 6.29289 26.2071C6.48043 26.3946 6.73478 26.5 7 26.5H13C13.2652 26.5 13.5196 26.3946 13.7071 26.2071C13.8946 26.0196 14 25.7652 14 25.5V19.5C14 19.2348 13.8946 18.9804 13.7071 18.7929C13.5196 18.6054 13.2652 18.5 13 18.5ZM25 6.5H19C18.7348 6.5 18.4804 6.60536 18.2929 6.79289C18.1054 6.98043 18 7.23478 18 7.5V13.5C18 13.7652 18.1054 14.0196 18.2929 14.2071C18.4804 14.3946 18.7348 14.5 19 14.5H25C25.2652 14.5 25.5196 14.3946 25.7071 14.2071C25.8946 14.0196 26 13.7652 26 13.5V7.5C26 7.23478 25.8946 6.98043 25.7071 6.79289C25.5196 6.60536 25.2652 6.5 25 6.5Z" fill="#773EFA"/>
<path id="Vector_2" d="M13 5.5H7C6.46957 5.5 5.96086 5.71071 5.58579 6.08579C5.21071 6.46086 5 6.96957 5 7.5V13.5C5 14.0304 5.21071 14.5391 5.58579 14.9142C5.96086 15.2893 6.46957 15.5 7 15.5H13C13.5304 15.5 14.0391 15.2893 14.4142 14.9142C14.7893 14.5391 15 14.0304 15 13.5V7.5C15 6.96957 14.7893 6.46086 14.4142 6.08579C14.0391 5.71071 13.5304 5.5 13 5.5ZM13 13.5H7V7.5H13V13.5ZM13 17.5H7C6.46957 17.5 5.96086 17.7107 5.58579 18.0858C5.21071 18.4609 5 18.9696 5 19.5V25.5C5 26.0304 5.21071 26.5391 5.58579 26.9142C5.96086 27.2893 6.46957 27.5 7 27.5H13C13.5304 27.5 14.0391 27.2893 14.4142 26.9142C14.7893 26.5391 15 26.0304 15 25.5V19.5C15 18.9696 14.7893 18.4609 14.4142 18.0858C14.0391 17.7107 13.5304 17.5 13 17.5ZM13 25.5H7V19.5H13V25.5ZM25 5.5H19C18.4696 5.5 17.9609 5.71071 17.5858 6.08579C17.2107 6.46086 17 6.96957 17 7.5V13.5C17 14.0304 17.2107 14.5391 17.5858 14.9142C17.9609 15.2893 18.4696 15.5 19 15.5H25C25.5304 15.5 26.0391 15.2893 26.4142 14.9142C26.7893 14.5391 27 14.0304 27 13.5V7.5C27 6.96957 26.7893 6.46086 26.4142 6.08579C26.0391 5.71071 25.5304 5.5 25 5.5ZM25 13.5H19V7.5H25V13.5ZM17 22.5V18.5C17 18.2348 17.1054 17.9804 17.2929 17.7929C17.4804 17.6054 17.7348 17.5 18 17.5C18.2652 17.5 18.5196 17.6054 18.7071 17.7929C18.8946 17.9804 19 18.2348 19 18.5V22.5C19 22.7652 18.8946 23.0196 18.7071 23.2071C18.5196 23.3946 18.2652 23.5 18 23.5C17.7348 23.5 17.4804 23.3946 17.2929 23.2071C17.1054 23.0196 17 22.7652 17 22.5ZM27 20.5C27 20.7652 26.8946 21.0196 26.7071 21.2071C26.5196 21.3946 26.2652 21.5 26 21.5H23V26.5C23 26.7652 22.8946 27.0196 22.7071 27.2071C22.5196 27.3946 22.2652 27.5 22 27.5H18C17.7348 27.5 17.4804 27.3946 17.2929 27.2071C17.1054 27.0196 17 26.7652 17 26.5C17 26.2348 17.1054 25.9804 17.2929 25.7929C17.4804 25.6054 17.7348 25.5 18 25.5H21V18.5C21 18.2348 21.1054 17.9804 21.2929 17.7929C21.4804 17.6054 21.7348 17.5 22 17.5C22.2652 17.5 22.5196 17.6054 22.7071 17.7929C22.8946 17.9804 23 18.2348 23 18.5V19.5H26C26.2652 19.5 26.5196 19.6054 26.7071 19.7929C26.8946 19.9804 27 20.2348 27 20.5ZM27 24.5V26.5C27 26.7652 26.8946 27.0196 26.7071 27.2071C26.5196 27.3946 26.2652 27.5 26 27.5C25.7348 27.5 25.4804 27.3946 25.2929 27.2071C25.1054 27.0196 25 26.7652 25 26.5V24.5C25 24.2348 25.1054 23.9804 25.2929 23.7929C25.4804 23.6054 25.7348 23.5 26 23.5C26.2652 23.5 26.5196 23.6054 26.7071 23.7929C26.8946 23.9804 27 24.2348 27 24.5Z" fill="#773EFA"/>
</g>
</svg>
