<svg width="10" height="7" viewBox="0 0 10 7" fill="none" xmlns="http://www.w3.org/2000/svg">
<path d="M9.28052 1.28053L4.03052 6.53053C3.96092 6.60033 3.87822 6.65563 3.78712 6.69333C3.69612 6.73113 3.59852 6.75053 3.49992 6.75053C3.40132 6.75053 3.30372 6.73113 3.21272 6.69333C3.12172 6.65563 3.03892 6.60033 2.9693 6.53053L0.719302 4.28053C0.578572 4.13983 0.499512 3.94893 0.499512 3.74993C0.499512 3.55093 0.578572 3.36003 0.719302 3.21933C0.860032 3.07853 1.0509 2.99953 1.24992 2.99953C1.44895 2.99953 1.63982 3.07853 1.78055 3.21933L3.49992 4.93963L8.21932 0.219301C8.28902 0.149621 8.37172 0.0943511 8.46272 0.0566311C8.55382 0.0189211 8.65142 -0.000488281 8.74992 -0.000488281C8.84852 -0.000488281 8.94602 0.0189211 9.03712 0.0566311C9.12812 0.0943511 9.21082 0.149621 9.28052 0.219301C9.35022 0.288991 9.40552 0.371711 9.44322 0.462761C9.48092 0.553801 9.50032 0.651381 9.50032 0.749931C9.50032 0.848481 9.48092 0.946061 9.44322 1.03713C9.40552 1.12813 9.35022 1.21083 9.28052 1.28053Z" fill="white"/>
</svg>
