<svg width="162" height="50" viewBox="0 0 162 50" fill="none" xmlns="http://www.w3.org/2000/svg">
<g id="Group">
<g id="Group_2">
<path id="Vector" d="M56.222 37.4747V21.5567H67.2247C68.2857 21.5567 69.1968 21.7107 69.954 22.0144C70.7112 22.3182 71.2973 22.7631 71.7122 23.3449C72.1272 23.9266 72.3325 24.6325 72.3325 25.4624C72.3325 26.4078 72.0288 27.2078 71.4256 27.8537C70.8224 28.4997 70.0096 28.9275 68.9915 29.1328V29.2868C69.8214 29.4023 70.5187 29.6419 71.0877 30.0055C71.6566 30.3691 72.0801 30.8226 72.3667 31.3573C72.6491 31.8963 72.7945 32.5081 72.7945 33.1925C72.7945 34.108 72.555 34.8866 72.0759 35.5282C71.5967 36.1699 70.908 36.6533 70.0139 36.9784C69.1198 37.3078 68.0461 37.4704 66.7927 37.4704H56.2263L56.222 37.4747ZM60.393 34.5272H65.8302C66.6002 34.5272 67.1862 34.3732 67.5884 34.0695C67.9905 33.7658 68.1873 33.3551 68.1873 32.846V32.3883C68.1873 32.0118 68.0889 31.6995 67.8921 31.46C67.6953 31.2204 67.4215 31.045 67.075 30.9381C66.7242 30.8269 66.3264 30.7755 65.8729 30.7755H60.0636V28.0035H65.8729C66.3521 28.0035 66.7542 27.935 67.075 27.7981C67.3959 27.6612 67.6354 27.4687 67.7937 27.2292C67.952 26.9896 68.0333 26.7158 68.0333 26.4121V25.9971C68.0333 25.6763 67.9477 25.4025 67.7723 25.1801C67.5969 24.9533 67.3531 24.7822 67.0408 24.6667C66.7285 24.5512 66.3435 24.4913 65.8943 24.4913H60.393V34.5358V34.5272Z" fill="black"/>
<path id="Vector_2" d="M88.4731 32.538V31.3359C88.4731 30.4461 88.3106 29.6504 87.9812 28.9445C87.656 28.2387 87.1769 27.627 86.5523 27.1093C85.9278 26.5917 85.1834 26.1939 84.3278 25.9201C83.468 25.642 82.5012 25.5051 81.4232 25.5051C79.9516 25.5051 78.6725 25.749 77.5774 26.2366C76.4865 26.7243 75.6352 27.4131 75.032 28.2986C74.4246 29.1884 74.1251 30.2279 74.1251 31.4214V31.7722C74.1251 32.6748 74.2962 33.4919 74.6385 34.2277C74.9807 34.9635 75.4727 35.5881 76.1143 36.1057C76.756 36.6233 77.5217 37.0212 78.4201 37.295C79.3142 37.573 80.3152 37.7099 81.4232 37.7099C82.6295 37.7099 83.7204 37.5474 84.6872 37.2308C85.6583 36.9099 86.4625 36.4608 87.0999 35.8875C87.6945 35.3528 88.0924 34.7368 88.2849 34.0438H84.3407C84.1482 34.3903 83.8231 34.6598 83.3653 34.8523C82.8391 35.0704 82.2146 35.1774 81.4873 35.1774C80.8328 35.1774 80.2596 35.0747 79.7719 34.8608C79.2842 34.6512 78.9078 34.3518 78.6383 33.9668C78.3688 33.5818 78.2319 33.1326 78.2319 32.6235V32.538H88.4731ZM78.6126 29.2098C78.8693 28.8376 79.2372 28.5467 79.7163 28.3371C80.1997 28.1275 80.7644 28.0205 81.4189 28.0205C82.0306 28.0205 82.5611 28.1189 83.0103 28.3157C83.4594 28.5125 83.8145 28.7905 84.0669 29.1456C84.3193 29.4964 84.4476 29.9156 84.4519 30.399H78.2319C78.2533 29.9413 78.3816 29.5434 78.6083 29.2098H78.6126Z" fill="black"/>
<path id="Vector_3" d="M96.2373 37.7142C94.8385 37.7142 93.6749 37.556 92.7423 37.2437C91.8097 36.9314 91.0953 36.4993 90.5905 35.956C90.09 35.4085 89.7777 34.7753 89.6622 34.0438H93.7219C93.7647 34.3647 93.8973 34.6384 94.1155 34.8609C94.3337 35.0876 94.6289 35.2544 95.001 35.3614C95.3732 35.4726 95.8138 35.524 96.3229 35.524C97.11 35.524 97.6875 35.4127 98.0597 35.186C98.4319 34.9593 98.6158 34.6513 98.6158 34.2577C98.6158 33.8641 98.4533 33.5818 98.1239 33.4064C97.7945 33.231 97.3282 33.1027 96.7165 33.0128L94.2695 32.6835C93.2086 32.538 92.3744 32.3156 91.7712 32.0161C91.1681 31.7167 90.736 31.3445 90.4708 30.891C90.2098 30.4418 90.0772 29.9242 90.0772 29.3424C90.0772 28.4697 90.351 27.7511 90.8943 27.1907C91.4418 26.6303 92.1691 26.211 93.076 25.9372C93.9872 25.6592 95.001 25.5223 96.1218 25.5223C97.3025 25.5223 98.3421 25.6549 99.2447 25.9158C100.147 26.1768 100.875 26.5704 101.426 27.0965C101.978 27.6184 102.308 28.2687 102.41 29.0387H98.5474C98.4875 28.705 98.342 28.4355 98.111 28.2302C97.88 28.0248 97.5891 27.8794 97.2384 27.7938C96.8876 27.7083 96.5197 27.6612 96.1261 27.6612C95.6598 27.6612 95.2705 27.7083 94.9582 27.8024C94.646 27.8965 94.4107 28.0334 94.2609 28.2045C94.1069 28.3799 94.03 28.5895 94.03 28.8376C94.03 29.1713 94.1754 29.4237 94.4663 29.5905C94.7572 29.7574 95.2235 29.8943 95.8652 29.9927L98.265 30.275C99.1377 30.3905 99.912 30.5787 100.592 30.844C101.268 31.1049 101.799 31.4771 102.188 31.9562C102.573 32.4353 102.765 33.077 102.765 33.877C102.765 34.7497 102.487 35.4683 101.935 36.0287C101.384 36.5891 100.614 37.0084 99.634 37.2822C98.6501 37.5602 97.5207 37.6971 96.2373 37.6971V37.7142Z" fill="black"/>
<path id="Vector_4" d="M109.691 21.5566V37.4746H105.965V29.0429L107.664 28.0205H103.758V25.5308L105.294 24.9918C105.709 24.8463 106.017 24.4913 106.098 24.0592L106.568 21.5566H109.696H109.691Z" fill="black"/>
<path id="Vector_5" d="M118.696 37.4746V21.5566H122.213L127.889 34.155L128.437 35.3143H128.634L129.156 34.1336L134.875 21.5566H138.349V37.4746H136.274V23.456H136.056L135.423 25.026L129.746 37.4703H127.299L121.601 24.8934L121.011 23.4517H120.792V37.4703H118.696V37.4746Z" fill="black"/>
<path id="Vector_6" d="M145.433 37.6927C144.56 37.6927 143.765 37.5558 143.042 37.2906C142.319 37.0254 141.703 36.6404 141.185 36.1441C140.667 35.6479 140.27 35.0533 139.983 34.3517C139.701 33.6544 139.555 32.8758 139.555 32.016V31.5155C139.555 30.3519 139.803 29.3423 140.295 28.491C140.791 27.6397 141.476 26.9767 142.357 26.5061C143.238 26.0312 144.261 25.796 145.424 25.796C146.413 25.796 147.324 25.9799 148.154 26.3521C148.984 26.7243 149.604 27.2376 150.01 27.8921H150.143L150.297 26.0141H152.239V37.4788H150.297L150.122 35.5795H150.01C149.604 36.2511 148.984 36.7687 148.154 37.1409C147.324 37.5131 146.413 37.697 145.424 37.697L145.433 37.6927ZM146.023 36.0115C146.969 36.0115 147.811 35.8062 148.543 35.3912C149.279 34.9763 149.805 34.4116 150.126 33.6972V29.7872C149.805 29.0899 149.279 28.5338 148.543 28.1188C147.807 27.7039 146.969 27.4986 146.023 27.4986C145.181 27.4986 144.441 27.6483 143.807 27.9477C143.174 28.2472 142.678 28.6664 142.323 29.2011C141.968 29.7402 141.788 30.3818 141.788 31.1219V32.3668C141.788 33.094 141.968 33.7357 142.323 34.2875C142.678 34.8394 143.174 35.2672 143.807 35.5666C144.441 35.8661 145.181 36.0158 146.023 36.0158V36.0115Z" fill="black"/>
<path id="Vector_7" d="M154.755 37.4746V21.5566H156.872V37.4746H154.755Z" fill="black"/>
<path id="Vector_8" d="M159.43 37.4746V21.5566H161.548V37.4746H159.43Z" fill="black"/>
</g>
<g id="Group_3">
<path id="Vector_9" d="M29.8062 7.82448H27.4619C27.4619 4.80002 25.0021 2.34024 21.9777 2.34024C18.9532 2.34024 16.4935 4.80002 16.4935 7.82448H14.1492C14.1492 3.5081 17.6613 0.000244141 21.9734 0.000244141C26.2855 0.000244141 29.7977 3.51238 29.7977 7.82448H29.8062Z" fill="black"/>
<path id="Vector_10" d="M35.6583 9.2663H8.30126C5.85432 9.2663 3.79666 11.093 3.50148 13.5185L0.0535094 41.8979C-0.468392 46.2058 2.89403 50.0002 7.23179 50.0002H36.7277C41.0655 50.0002 44.4279 46.2058 43.906 41.8979L40.4581 13.5185C40.1629 11.093 38.1009 9.2663 35.6583 9.2663Z" fill="black"/>
<g id="Clip path group">
<mask id="mask0_404_1970" style="mask-type:luminance" maskUnits="userSpaceOnUse" x="0" y="9" width="44" height="42">
<g id="clippath">
<path id="Vector_11" d="M35.6583 9.2663H8.30126C5.85432 9.2663 3.79666 11.093 3.50148 13.5185L0.0535094 41.8979C-0.468392 46.2058 2.89403 50.0002 7.23179 50.0002H36.7277C41.0655 50.0002 44.4279 46.2058 43.906 41.8979L40.4581 13.5185C40.1629 11.093 38.1009 9.2663 35.6583 9.2663Z" fill="white"/>
</g>
</mask>
<g mask="url(#mask0_404_1970)">
<g id="Group_4">
<g id="Group_5">
<path id="Vector_12" d="M-3.09912 50.7362V8.53497H17.3192C22.3671 8.53497 26.6193 11.6407 28.1508 16.4448C29.5667 20.9023 28.2534 25.5053 24.8012 28.4742L33.143 33.2996C36.9119 35.4813 38.6187 39.6052 37.4894 43.8103C36.36 48.0155 32.8179 50.732 28.463 50.732H-3.09485L-3.09912 50.7362Z" fill="url(#paint0_linear_404_1970)"/>
<path id="Vector_13" d="M17.3149 9.26651C27.7272 9.26651 31.881 22.622 23.4878 28.564H23.4964L32.7708 33.9327C40.394 38.3432 37.2669 50.0004 28.4587 50.0004H-2.36765V9.26223H17.3149M17.3149 7.79919H-3.83496V51.4678H28.4587C33.1558 51.4678 36.976 48.5374 38.1952 44.0029C39.4144 39.4683 37.5706 35.0193 33.5066 32.6665L26.0203 28.3373C29.1389 25.1802 30.2512 20.6371 28.848 16.2266C27.2182 11.1103 22.6964 7.80348 17.3191 7.80348L17.3149 7.79919Z" fill="white"/>
</g>
<g id="Group_6">
<path id="Vector_14" d="M23.227 28.7523L-2.36755 45.8596V9.2666H17.315C27.8385 9.2666 31.9752 22.9088 23.227 28.7523Z" fill="url(#paint1_linear_404_1970)"/>
<path id="Vector_15" d="M-2.36755 50.0048H28.4075C37.2285 50.0048 40.3642 38.3262 32.7281 33.9114L23.4965 28.5726L-2.36755 45.8638V50.0091V50.0048Z" fill="url(#paint2_linear_404_1970)"/>
<path id="Vector_16" style="mix-blend-mode:multiply" opacity="0.53" d="M25.8452 29.9289L-0.925765 45.5645L-2.18774 44.7603L23.4966 28.5685L25.8452 29.9289Z" fill="url(#paint3_linear_404_1970)"/>
<g id="Group_7">
<path id="Vector_17" d="M-2.99634 12.5178L24.6858 28.5299L-2.99634 47.036V12.5178Z" fill="url(#paint4_linear_404_1970)"/>
<path id="Vector_18" d="M-2.36755 13.6085L23.4965 28.5683L-2.36755 45.8594V13.6085ZM-3.62524 11.4311V48.208L-1.67025 46.9032L24.1938 29.6121L25.8707 28.4913L24.1253 27.4817L-1.7387 12.522L-3.62524 11.4311Z" fill="white"/>
</g>
<path id="Vector_19" d="M-2.36755 13.6086L23.4965 28.5683L-2.36755 45.8595V13.6086Z" fill="#098EF7"/>
</g>
</g>
</g>
</g>
</g>
</g>
<defs>
<linearGradient id="paint0_linear_404_1970" x1="-3.09912" y1="29.6335" x2="37.8273" y2="29.6335" gradientUnits="userSpaceOnUse">
<stop stop-color="#2E48F7"/>
<stop offset="1" stop-color="#00B1EB"/>
</linearGradient>
<linearGradient id="paint1_linear_404_1970" x1="27.8171" y1="27.5631" x2="2.97124" y2="27.5631" gradientUnits="userSpaceOnUse">
<stop stop-color="#02A2FF"/>
<stop offset="1" stop-color="#00F9C1"/>
</linearGradient>
<linearGradient id="paint2_linear_404_1970" x1="1.97021" y1="40.8159" x2="36.0692" y2="38.6556" gradientUnits="userSpaceOnUse">
<stop stop-color="#098EF7"/>
<stop offset="0.41" stop-color="#BC61F8"/>
<stop offset="0.97" stop-color="#FF4169"/>
</linearGradient>
<linearGradient id="paint3_linear_404_1970" x1="0.455984" y1="45.9239" x2="23.2057" y2="28.761" gradientUnits="userSpaceOnUse">
<stop stop-color="#2E48F7"/>
<stop offset="0.82" stop-color="#FF3B39"/>
</linearGradient>
<linearGradient id="paint4_linear_404_1970" x1="-0.442445" y1="34.7799" x2="10.911" y2="20.4404" gradientUnits="userSpaceOnUse">
<stop stop-color="#2E63F7"/>
<stop offset="1" stop-color="#00B1EB"/>
</linearGradient>
</defs>
</svg>
