<svg width="35" height="35" viewBox="0 0 35 35" fill="none" xmlns="http://www.w3.org/2000/svg">
<g id="Frame 6">
<circle id="Ellipse 9399" cx="17.5" cy="17.5" r="17.5" fill="#B7CCD9"/>
<g id="Layer_x0020_1">
<path id="Vector" d="M16.7563 21.9054C16.2838 24.3832 15.7065 26.7591 13.9965 28.0001C13.4688 24.2545 14.7717 21.4417 15.3764 18.4555C14.3449 16.7188 15.5005 13.2243 17.6763 14.0856C20.3534 15.1445 15.3581 20.5413 18.7116 21.2153C22.2132 21.9188 23.6423 15.1399 21.4714 12.9356C18.3341 9.75224 12.3392 12.8629 13.0764 17.4205C13.2557 18.5346 14.4071 18.8728 13.5366 20.4102C11.5285 19.9651 10.9295 18.3817 11.0064 16.2706C11.1305 12.8147 14.1114 10.3952 17.1015 10.0606C20.8825 9.63728 24.4312 11.4485 24.9213 15.0056C25.4732 19.0201 23.2145 23.3679 19.1715 23.0554C18.0753 22.9703 17.6155 22.4271 16.7563 21.9054Z" fill="white"/>
</g>
</g>
</svg>
