<svg width="35" height="35" viewBox="0 0 35 35" fill="none" xmlns="http://www.w3.org/2000/svg">
<g id="Frame 9">
<circle id="Ellipse 9396" cx="17.5" cy="17.5" r="17.5" fill="#B7CCD9"/>
<g id="Group">
<g id="ARC_176_">
<g id="Group_2">
<path id="Vector" d="M18.8778 15.7475C18.7097 15.7475 18.5416 15.6835 18.4135 15.5551C17.3894 14.531 15.723 14.5306 14.6986 15.5551C14.4424 15.8115 14.0261 15.8115 13.77 15.5551C13.5135 15.2987 13.5135 14.883 13.77 14.6265C15.3063 13.0898 17.8061 13.0902 19.3421 14.6265C19.5986 14.883 19.5986 15.2987 19.3421 15.5551C19.2141 15.6835 19.0456 15.7475 18.8778 15.7475Z" fill="white"/>
</g>
</g>
<g id="ARC_175_">
<g id="Group_3">
<path id="Vector_2" d="M18.4135 19.4938C17.4044 19.4938 16.3954 19.1096 15.6274 18.3416C15.3709 18.0852 15.3709 17.6695 15.6274 17.413C15.8835 17.1566 16.2999 17.1566 16.556 17.413C17.5801 18.4372 19.2465 18.4375 20.271 17.413C20.5271 17.1566 20.9434 17.1566 21.1995 17.413C21.456 17.6695 21.456 18.0852 21.1995 18.3416C20.4312 19.1096 19.4222 19.4938 18.4135 19.4938Z" fill="white"/>
</g>
</g>
<g id="LINE_273_">
<g id="Group_4">
<path id="Vector_3" d="M20.7347 18.5334C20.5666 18.5334 20.3985 18.4694 20.2705 18.341C20.014 18.0846 20.014 17.6689 20.2705 17.4125L23.9388 13.7441C24.1949 13.4876 24.6113 13.4876 24.8674 13.7441C25.1238 14.0005 25.1238 14.4162 24.8674 14.6727L21.199 18.341C21.071 18.4694 20.9029 18.5334 20.7347 18.5334Z" fill="white"/>
</g>
</g>
<g id="LINE_272_">
<g id="Group_5">
<path id="Vector_4" d="M15.2094 24.0592C15.0412 24.0592 14.8731 23.9952 14.7451 23.8668C14.4886 23.6103 14.4886 23.1947 14.7451 22.9382L16.7956 20.8876C17.0517 20.6312 17.4681 20.6312 17.7242 20.8876C17.9807 21.1441 17.9807 21.5598 17.7242 21.8162L15.6736 23.8668C15.5456 23.9952 15.3775 24.0592 15.2094 24.0592Z" fill="white"/>
</g>
</g>
<g id="LINE_271_">
<g id="Group_6">
<path id="Vector_5" d="M10.5663 19.4154C10.3982 19.4154 10.2301 19.3514 10.102 19.223C9.84556 18.9666 9.84556 18.5509 10.102 18.2944L13.7704 14.6264C14.0268 14.37 14.4428 14.37 14.6989 14.6264C14.9554 14.8829 14.9554 15.2986 14.6989 15.555L11.0306 19.223C10.9022 19.3511 10.7341 19.4154 10.5663 19.4154Z" fill="white"/>
</g>
</g>
<g id="LINE_270_">
<g id="Group_7">
<path id="Vector_6" d="M17.7089 12.2724C17.5408 12.2724 17.373 12.2084 17.2446 12.0803C16.9881 11.8239 16.9881 11.4082 17.2446 11.1514L19.2951 9.10054C19.5516 8.84409 19.9673 8.84409 20.2241 9.10054C20.4805 9.35698 20.4805 9.77267 20.2241 10.0294L18.1735 12.0803C18.0451 12.2081 17.8767 12.2724 17.7089 12.2724Z" fill="white"/>
</g>
</g>
<g id="ARC_174_">
<g id="Group_8">
<path id="Vector_7" d="M12.8876 24.9997C11.872 24.9997 10.8565 24.6221 10.1016 23.8669C8.59114 22.3564 8.59114 19.8048 10.1016 18.2944C10.3577 18.0379 10.774 18.0379 11.0302 18.2944C11.2866 18.5508 11.2866 18.9665 11.0302 19.223C10.0234 20.2297 10.0234 21.9312 11.0302 22.938C12.0369 23.9447 13.7384 23.9447 14.7451 22.938C15.0013 22.6815 15.4176 22.6815 15.6737 22.938C15.9302 23.1944 15.9302 23.6101 15.6737 23.8665C14.9188 24.6221 13.9032 24.9997 12.8876 24.9997Z" fill="white"/>
</g>
</g>
<g id="ARC_173_">
<g id="Group_9">
<path id="Vector_8" d="M24.4032 14.8652C24.2351 14.8652 24.067 14.8011 23.9389 14.6727C23.6825 14.4163 23.6825 14.0006 23.9389 13.7442C24.9457 12.7374 24.9457 11.0359 23.9389 10.0292C22.9322 9.02244 21.2307 9.02244 20.2239 10.0292C19.9678 10.2856 19.5515 10.2856 19.2954 10.0292C19.0389 9.77273 19.0389 9.35704 19.2954 9.10059C20.8058 7.59017 23.3574 7.59017 24.8678 9.10059C26.3783 10.611 26.3783 13.1626 24.8678 14.6731C24.7395 14.8011 24.5713 14.8652 24.4032 14.8652Z" fill="white"/>
</g>
</g>
</g>
</g>
</svg>
