<svg width="35" height="35" viewBox="0 0 35 35" fill="none" xmlns="http://www.w3.org/2000/svg">
<g id="Frame 7">
<circle id="Ellipse 9398" cx="17.5" cy="17.5" r="17.5" fill="#B7CCD9"/>
<path id="Vector" d="M26 12.6574C25.405 12.9385 24.771 13.1248 24.11 13.2152C24.79 12.778 25.309 12.0909 25.553 11.2628C24.919 11.6698 24.219 11.9574 23.473 12.1178C22.871 11.4275 22.013 11 21.077 11C19.261 11 17.799 12.5874 17.799 14.5334C17.799 14.8134 17.821 15.0826 17.875 15.3389C15.148 15.1957 12.735 13.7882 11.114 11.644C10.831 12.1728 10.665 12.778 10.665 13.4295C10.665 14.6529 11.25 15.7374 12.122 16.3652C11.595 16.3545 11.078 16.1897 10.64 15.9302C10.64 15.9409 10.64 15.9549 10.64 15.9689C10.64 17.6855 11.777 19.1114 13.268 19.4398C13.001 19.5185 12.71 19.5562 12.408 19.5562C12.198 19.5562 11.986 19.5432 11.787 19.4958C12.212 20.8948 13.418 21.9232 14.852 21.9566C13.736 22.8968 12.319 23.4632 10.785 23.4632C10.516 23.4632 10.258 23.4503 10 23.4148C11.453 24.4238 13.175 25 15.032 25C21.068 25 24.368 19.6154 24.368 14.948C24.368 14.7918 24.363 14.6411 24.356 14.4914C25.007 13.9938 25.554 13.3725 26 12.6574Z" fill="white"/>
</g>
</svg>
